<svg id="Layer_1" data-name="Layer 1" xmlns="http://www.w3.org/2000/svg" width="99.4mm" height="14.8mm" viewBox="0 0 281.76 41.95"><defs><style>.cls-1{fill:#dbb552;}.cls-2{fill:#fff;}</style></defs><polygon class="cls-1" points="22.19 0.05 27.38 16.04 44.19 16.04 30.59 25.92 35.79 41.9 22.19 32.02 8.59 41.9 13.79 25.92 0.19 16.04 17 16.04 22.19 0.05"/><polygon class="cls-1" points="81.54 0.05 86.73 16.04 103.54 16.04 89.94 25.92 95.14 41.9 81.54 32.02 67.94 41.9 73.14 25.92 59.54 16.04 76.35 16.04 81.54 0.05"/><polygon class="cls-2" points="140.88 0.05 146.07 16.04 162.88 16.04 149.28 25.92 154.48 41.9 140.88 32.02 127.28 41.9 132.48 25.92 118.88 16.04 135.69 16.04 140.88 0.05"/><polygon class="cls-2" points="200.23 0.05 205.42 16.04 222.23 16.04 208.63 25.92 213.83 41.9 200.23 32.02 186.63 41.9 191.83 25.92 178.23 16.04 195.04 16.04 200.23 0.05"/><polygon class="cls-2" points="259.57 0.05 264.76 16.04 281.57 16.04 267.97 25.92 273.17 41.9 259.57 32.02 245.97 41.9 251.17 25.92 237.57 16.04 254.38 16.04 259.57 0.05"/></svg>
