<svg id="Layer_1" data-name="Layer 1" xmlns="http://www.w3.org/2000/svg" width="40.4mm" height="5.9mm" viewBox="0 0 114.52 16.72"><defs><style>.cls-1{fill:#6bb790;}.cls-2{fill:#231f20;}</style></defs><path class="cls-1" d="M114.46.11H.37v13h110.2Q112.51,6.61,114.46.11Z"/><path class="cls-2" d="M6.85,10.07l4,6.5h-.4l-4-6.45H.41v6.44H.06V.13H5.92c3.2,0,5.45,2.06,5.45,5A4.89,4.89,0,0,1,6.85,10.07Zm-.93-.29c3,0,5.09-1.9,5.09-4.65S8.93.48,5.92.48H.41v9.3Z"/><path class="cls-2" d="M30.83,16.26v.35H21.06V.11h9.36V.46h-9V8h7.66v.35H21.4v7.88Z"/><path class="cls-2" d="M38.62.19H39l6,16h2l5.74-16h.36L47.2,16.52H44.7Z"/><path class="cls-2" d="M62.16.19h.35V16.57h-.35Z"/><path class="cls-2" d="M82.43,16.26v.35H72.66V.11H82V.46H73V8h7.65v.35H73v7.88Z"/><path class="cls-2" d="M90.11.19h.37l4.45,16h1.23l4.72-16h2.81l4.71,16h1.23l4.45-16h.38l-4.57,16.36h-1.75l-4.71-16h-2.29l-4.71,16H94.67Z"/></svg>
