<svg id="Layer_1" data-name="Layer 1" xmlns="http://www.w3.org/2000/svg" width="40.45mm" height="16.08mm" viewBox="0 0 114.66 45.57"><defs><style>.cls-1{fill:none;}.cls-2{fill:#6bb790;}.cls-3{fill:#fff;}</style></defs><path class="cls-1" d="M6.06,29.43H.56v9.31h5.5c3,0,5.09-1.9,5.09-4.65S9.08,29.43,6.06,29.43Z"/><path class="cls-1" d="M96.16,16.09,97.07,13h-3l.86,3.09Z"/><path class="cls-1" d="M109.63,16.09l.85-3.09h-3l.91,3.09Z"/><path class="cls-1" d="M47,16.06,48.06,13H43.79l1.14,3.06Z"/><path class="cls-2" d="M101.13.43,97.43,13h9.69L103.42.43Z"/><path class="cls-2" d="M30.42,0V.35h-9V7.91h7.65v.35H21.4V13h22L38.61.07H39L43.79,13h4.27L52.7.07h.36L48.42,13H62.16V.07h.35V13H72.66V0Z"/><path class="cls-2" d="M.36,0H5.91c3.21,0,5.45,2.06,5.45,5A4.89,4.89,0,0,1,6.84,10l1.87,3H21.05V0Z"/><path class="cls-2" d="M73,.35V7.91h7.66v.35H73V13H93.71L90.1.07h.38L94.07,13h3L100.87.09h2.81L107.48,13h3L114.08.07h.35l0-.07H82V.35Z"/><path class="cls-2" d="M5.91,10H.4v3H8.3L6.46,10A4.87,4.87,0,0,1,5.91,10Z"/><path class="cls-2" d="M11,5C11,2.26,8.93.36,5.91.36H.4V9.67H5.91C8.93,9.67,11,7.77,11,5Z"/><path class="cls-3" d="M11.36,5c0-2.95-2.24-5-5.45-5H.06V16.45H.4V10H5.91a4.87,4.87,0,0,0,.55,0L8.3,13l2.12,3.45h.41L8.71,13,6.84,10A4.89,4.89,0,0,0,11.36,5ZM5.91,9.67H.4V.36H5.91C8.93.36,11,2.26,11,5S8.93,9.67,5.91,9.67Z"/><path class="cls-3" d="M29.05,8.26V7.91H21.4V.35h9V0H21.05V16.5h9.77v-.35H21.4V8.26Z"/><polygon class="cls-3" points="52.7 0.07 48.06 13 46.96 16.06 44.93 16.06 43.79 13 38.97 0.07 38.61 0.07 43.43 13 44.7 16.41 47.19 16.41 48.42 13 53.06 0.07 52.7 0.07"/><polygon class="cls-3" points="62.16 0.07 62.16 13 62.16 16.45 62.51 16.45 62.51 13 62.51 0.07 62.16 0.07"/><path class="cls-3" d="M82.43,16.5v-.35H73V8.26h7.66V7.91H73V.35h9V0H72.66V16.5Z"/><polygon class="cls-3" points="110.48 13 109.63 16.09 108.39 16.09 107.48 13 103.68 0.09 100.87 0.09 97.07 13 96.16 16.09 94.93 16.09 94.07 13 90.48 0.07 90.1 0.07 93.71 13 94.67 16.44 96.42 16.44 97.43 13 101.13 0.43 103.42 0.43 107.12 13 108.13 16.44 109.89 16.44 114.45 0.07 114.43 0.07 114.08 0.07 110.48 13"/><path class="cls-3" d="M11.51,34.09c0-3-2.24-5-5.45-5H.21V45.52H.56V39.09h5.5a5.15,5.15,0,0,0,.56,0l4,6.45H11L7,39A4.89,4.89,0,0,0,11.51,34.09ZM6.06,38.74H.56V29.43h5.5c3,0,5.09,1.9,5.09,4.66S9.08,38.74,6.06,38.74Z"/><polygon class="cls-3" points="21.55 37.33 29.21 37.33 29.21 36.99 21.55 36.99 21.55 29.42 30.57 29.42 30.57 29.07 21.2 29.07 21.2 45.57 30.97 45.57 30.97 45.22 21.55 45.22 21.55 37.33"/><polygon class="cls-3" points="47.11 45.13 45.08 45.13 39.13 29.14 38.76 29.14 44.85 45.48 47.34 45.48 53.22 29.14 52.85 29.14 47.11 45.13"/><rect class="cls-3" x="62.31" y="29.14" width="0.35" height="16.38"/><polygon class="cls-3" points="73.16 37.33 80.81 37.33 80.81 36.99 73.16 36.99 73.16 29.42 82.17 29.42 82.17 29.07 72.81 29.07 72.81 45.57 82.58 45.57 82.58 45.22 73.16 45.22 73.16 37.33"/><polygon class="cls-3" points="114.23 29.14 109.78 45.16 108.55 45.16 103.83 29.16 101.02 29.16 96.31 45.16 95.08 45.16 90.63 29.14 90.25 29.14 94.82 45.51 96.57 45.51 101.28 29.51 103.57 29.51 108.28 45.51 110.04 45.51 114.61 29.14 114.23 29.14"/></svg>
