<svg id="Layer_1" data-name="Layer 1" xmlns="http://www.w3.org/2000/svg" width="15mm" height="6mm" viewBox="0 0 42.52 17.01"><defs><style>.cls-1{fill:#6bb790;}.cls-2{fill:#fff;stroke:#fff;stroke-miterlimit:10;stroke-width:0.5px;}</style></defs><path class="cls-1" d="M38.64,13.39H.14V0H42.31Z"/><path class="cls-2" d="M7.17,10.24l4,6.49h-.41l-4-6.45H.73v6.44H.39V.29H6.24c3.21,0,5.45,2.06,5.45,5A4.9,4.9,0,0,1,7.17,10.24ZM6.24,10c3,0,5.09-1.9,5.09-4.66S9.26.64,6.24.64H.73V10Z"/><path class="cls-2" d="M17.7.28h.38l4.45,16h1.23l4.71-16h2.81L36,16.3h1.24l4.45-16h.37L37.49,16.64H35.73L31,.64H28.73L24,16.64H22.27Z"/></svg>
