<svg id="Layer_1" data-name="Layer 1" xmlns="http://www.w3.org/2000/svg" width="14.7mm" height="5.8mm" viewBox="0 0 41.67 16.44"><defs><style>.cls-1{fill:#6bb790;}.cls-2{fill:#fff;}</style></defs><path class="cls-1" d="M38,13H0V0H41.67Z"/><path class="cls-2" d="M6.79,10l4,6.5h-.4L6.41,10H.35v6.44H0V0H5.86c3.2,0,5.45,2.06,5.45,5A4.89,4.89,0,0,1,6.79,10Zm-.93-.29C8.87,9.66,11,7.76,11,5S8.87.36,5.86.36H.35v9.3Z"/><path class="cls-2" d="M17.31,0h.38l4.45,16h1.23L28.09,0H30.9l4.71,16h1.23L41.29,0h.38L37.1,16.36H35.35L30.64.36H28.35l-4.71,16H21.88Z"/></svg>
