<svg id="Layer_1" data-name="Layer 1" xmlns="http://www.w3.org/2000/svg" width="25.4mm" height="14.6mm" viewBox="0 0 72 41.39"><defs><style>.cls-1{fill:#fff;}</style></defs><g id="Icons_UI_Arrows_Back_Black_100" data-name="Icons UI Arrows Back Black 100"><path id="Shape" class="cls-1" d="M36,36,3.53.67A1.92,1.92,0,0,0,.83.49L.65.67a2.34,2.34,0,0,0,0,3.13L34.57,40.71a1.91,1.91,0,0,0,2.7.18l.18-.18L71.35,3.8A2.33,2.33,0,0,0,72,2.25a2.29,2.29,0,0,0-.6-1.56,1.91,1.91,0,0,0-2.7-.18,1.53,1.53,0,0,0-.18.18Z"/></g></svg>
